<?xml version="1.0" encoding="UTF-8"?>
<svg version="1.1" xmlns="http://www.w3.org/2000/svg" width="500" height="500">
<path d="M0 0 C0.81426453 0.00182281 1.62852905 0.00364563 2.46746826 0.00552368 C14.4663418 0.050723 26.03700076 0.50083157 37.75 3.3125 C38.50764648 3.48410645 39.26529297 3.65571289 40.04589844 3.83251953 C58.78286855 8.12720809 76.059379 14.80417283 92.75 24.3125 C93.8328125 24.91835937 94.915625 25.52421875 96.03125 26.1484375 C101.04944571 29.03812885 101.04944571 29.03812885 102.75 30.3125 C102.75 30.9725 102.75 31.6325 102.75 32.3125 C103.46542969 32.5703125 104.18085938 32.828125 104.91796875 33.09375 C107.92160111 34.38634765 110.38505372 35.9402709 113.0625 37.8125 C113.94550781 38.4209375 114.82851563 39.029375 115.73828125 39.65625 C116.73408203 40.47609375 116.73408203 40.47609375 117.75 41.3125 C117.75 41.9725 117.75 42.6325 117.75 43.3125 C118.30816406 43.54324219 118.86632812 43.77398437 119.44140625 44.01171875 C122.36289201 45.65783509 124.35054666 47.72323132 126.6875 50.125 C127.52152344 50.97707031 128.35554688 51.82914063 129.21484375 52.70703125 C130.05144531 53.56683594 130.88804687 54.42664063 131.75 55.3125 C132.58917969 56.1478125 133.42835938 56.983125 134.29296875 57.84375 C141.23168155 64.81555682 147.3763969 72.07297525 152.75 80.3125 C153.12769531 80.88742188 153.50539063 81.46234375 153.89453125 82.0546875 C174.35037183 113.35537054 185.24074725 147.59928093 185.125 185.1875 C185.12412384 185.89461121 185.12324768 186.60172241 185.12234497 187.33026123 C184.98827991 220.51252386 176.27247695 251.19090812 159.875 279.9375 C159.16005371 281.19288574 159.16005371 281.19288574 158.43066406 282.47363281 C157.75729004 283.61977051 157.75729004 283.61977051 157.0703125 284.7890625 C156.67086426 285.47049316 156.27141602 286.15192383 155.85986328 286.85400391 C155.4936084 287.33530762 155.12735352 287.81661133 154.75 288.3125 C154.09 288.3125 153.43 288.3125 152.75 288.3125 C152.5128125 289.00730469 152.275625 289.70210938 152.03125 290.41796875 C150.5189473 293.83448185 148.49761633 296.67006671 146.25 299.625 C145.84652344 300.17478516 145.44304687 300.72457031 145.02734375 301.29101562 C143.98731309 302.67257451 142.87366546 303.99806298 141.75 305.3125 C141.09 305.3125 140.43 305.3125 139.75 305.3125 C139.48678955 305.89950684 139.2235791 306.48651367 138.95239258 307.09130859 C136.84365782 310.98679466 133.56096802 313.83827577 130.4375 316.9375 C129.72271484 317.6488208 129.00792969 318.3601416 128.27148438 319.09301758 C106.61649608 340.3125 106.61649608 340.3125 98.75 340.3125 C98.75 340.9725 98.75 341.6325 98.75 342.3125 C89.65292356 347.4996019 80.26991614 351.97032917 70.75 356.3125 C69.71875 356.78945313 68.6875 357.26640625 67.625 357.7578125 C58.95517461 361.58698538 49.91532577 363.99147034 40.75 366.3125 C39.86828125 366.539375 38.9865625 366.76625 38.078125 367 C-0.77501895 375.8177348 -44.7029261 369.67978468 -80.25 352.3125 C-81.35859375 351.78914063 -82.4671875 351.26578125 -83.609375 350.7265625 C-91.6183972 346.86194699 -98.9758379 342.43913937 -106.25 337.3125 C-107.53615759 336.42534509 -108.82263078 335.53864758 -110.109375 334.65234375 C-111.40698185 333.74844555 -112.70386873 332.84351281 -114 331.9375 C-114.62132812 331.50848389 -115.24265625 331.07946777 -115.8828125 330.63745117 C-117.37566231 329.57966407 -118.81841787 328.45183608 -120.25 327.3125 C-120.25 326.6525 -120.25 325.9925 -120.25 325.3125 C-121.07951172 324.95478516 -121.07951172 324.95478516 -121.92578125 324.58984375 C-136.24789598 316.71869835 -145.99442001 300.26348969 -155.25 287.3125 C-156.15105469 286.05759766 -156.15105469 286.05759766 -157.0703125 284.77734375 C-160.49256352 279.84106022 -163.20244388 274.67007708 -165.81640625 269.265625 C-166.68867397 267.46880103 -167.58606758 265.68352949 -168.52734375 263.921875 C-176.46310233 249.01380457 -180.16354165 232.79005586 -183.25 216.3125 C-183.45133545 215.27222656 -183.45133545 215.27222656 -183.65673828 214.2109375 C-187.16416578 195.34679859 -186.93022796 173.12015148 -183.25 154.3125 C-183.07807129 153.42481934 -182.90614258 152.53713867 -182.72900391 151.62255859 C-179.40865818 134.83775326 -174.85198846 119.65405169 -167.25 104.3125 C-166.95641602 103.71066895 -166.66283203 103.10883789 -166.36035156 102.48876953 C-159.94834671 89.44866463 -151.94055461 76.18163558 -142.25 65.3125 C-141.59 65.3125 -140.93 65.3125 -140.25 65.3125 C-140.02699219 64.77367187 -139.80398437 64.23484375 -139.57421875 63.6796875 C-137.81989597 60.54364146 -135.49827505 58.04863124 -133.0625 55.4375 C-132.32592163 54.64230957 -132.32592163 54.64230957 -131.57446289 53.83105469 C-128.01082633 50.02719267 -124.39635335 46.48843023 -120.25 43.3125 C-119.59 43.3125 -118.93 43.3125 -118.25 43.3125 C-118.25 42.6525 -118.25 41.9925 -118.25 41.3125 C-116.1555032 39.67820249 -114.07217909 38.17082766 -111.875 36.6875 C-111.27171875 36.26726562 -110.6684375 35.84703125 -110.046875 35.4140625 C-105.51537135 32.3125 -105.51537135 32.3125 -103.25 32.3125 C-103.25 31.6525 -103.25 30.9925 -103.25 30.3125 C-80.97315021 17.80498463 -58.75699235 6.45131837 -33.25 2.3125 C-32.22181152 2.14556641 -31.19362305 1.97863281 -30.13427734 1.80664062 C-20.05872853 0.31478834 -10.1765633 -0.04741321 0 0 Z " fill="#E5E6E6" transform="translate(250.25,64.6875)"/>
<path d="M0 0 C4.30523691 1.11617253 5.56114136 2.42802317 8.375 5.875 C8.8390625 6.43703125 9.303125 6.9990625 9.78125 7.578125 C14.5811529 13.55447469 18.98473192 19.84017049 23.45703125 26.0625 C26.71886831 30.59743282 30.01430517 35.10030652 33.375 39.5625 C42.375 51.51277624 42.375 51.51277624 42.375 53.875 C43.035 53.875 43.695 53.875 44.375 53.875 C45.73616961 55.65733868 47.01123787 57.50551283 48.25 59.375 C51.83387127 64.69990597 55.56705014 69.87975558 59.4375 75 C59.94490723 75.67595215 60.45231445 76.3519043 60.97509766 77.04833984 C63.26380811 80.09478406 65.56587821 83.12718258 67.91796875 86.125 C68.64628906 87.07375 69.37460937 88.0225 70.125 89 C70.75921875 89.80695313 71.3934375 90.61390625 72.046875 91.4453125 C73.70585117 94.48026301 73.75974431 96.46391327 73.375 99.875 C71.5079009 102.17775556 70.01852259 103.55323871 67.375 104.875 C65.50170244 105.01661509 63.62392535 105.10104988 61.74609375 105.15625 C60.07063477 105.21232422 60.07063477 105.21232422 58.36132812 105.26953125 C55.9915399 105.33995974 53.62174822 105.41027186 51.25195312 105.48046875 C50.13626953 105.51785156 49.02058594 105.55523437 47.87109375 105.59375 C46.84169678 105.62404297 45.8122998 105.65433594 44.75170898 105.68554688 C42.42102933 105.61274267 42.42102933 105.61274267 41.375 106.875 C41.26021537 110.01948435 41.21012483 113.14288615 41.20141602 116.28833008 C41.1913855 117.77120766 41.1913855 117.77120766 41.18115234 119.28404236 C41.16706486 121.43883322 41.15518271 123.59363933 41.14520454 125.74845314 C41.12884934 129.15638874 41.10561341 132.56421153 41.08030701 135.97209167 C41.0093831 145.66436173 40.94940004 155.35667843 40.89819336 165.04907227 C40.86642781 170.97008035 40.82515522 176.89096033 40.77799797 182.81186485 C40.76195955 185.07210678 40.74964652 187.33237827 40.74109077 189.5926609 C40.72895736 192.7530685 40.70481469 195.91317432 40.67797852 199.07348633 C40.67738937 200.01130951 40.67680023 200.94913269 40.67619324 201.91537476 C40.66647491 202.77767197 40.65675659 203.63996918 40.64674377 204.52839661 C40.64251184 205.27559369 40.6382799 206.02279078 40.63391972 206.7926302 C40.33447097 209.20095597 39.62517939 210.80440843 38.375 212.875 C35.02874742 215.28158932 31.78695479 215.14519303 27.75805664 215.18139648 C27.1022612 215.18972 26.44646576 215.19804352 25.77079773 215.20661926 C23.60885639 215.23066084 21.44721697 215.23948322 19.28515625 215.24609375 C17.77827364 215.25506334 16.27139192 215.26418525 14.76451111 215.27345276 C11.60804075 215.28992854 8.4516763 215.29764049 5.29516602 215.30053711 C1.25525245 215.30592488 -2.78366308 215.34362559 -6.82329464 215.38928127 C-9.93489704 215.41905546 -13.04625894 215.4262607 -16.15799141 215.42726326 C-17.64713687 215.43146359 -19.13628316 215.44389064 -20.62528801 215.46478081 C-22.71048909 215.49171126 -24.79337457 215.48686882 -26.87866211 215.47436523 C-28.06350693 215.47943588 -29.24835175 215.48450653 -30.46910095 215.48973083 C-34.54549641 214.69569847 -36.0168805 213.02729952 -38.625 209.875 C-39.76217489 207.60065023 -39.75893214 206.33348928 -39.77648926 203.80686951 C-39.78483292 202.95573578 -39.79317657 202.10460205 -39.80177307 201.22767639 C-39.8080497 199.8241819 -39.8080497 199.8241819 -39.81445312 198.39233398 C-39.82274643 197.4085376 -39.83103973 196.42474121 -39.83958435 195.41113281 C-39.85700868 193.27054405 -39.87216893 191.12993597 -39.88536072 188.98931694 C-39.90633534 185.60733348 -39.93336114 182.22544747 -39.96203613 178.84352112 C-40.03197773 170.44467988 -40.09134743 162.04576963 -40.15106201 153.64685059 C-40.20189705 146.55198616 -40.25668982 139.45717431 -40.31687927 132.36238289 C-40.34355689 129.02028568 -40.36430803 125.67818385 -40.3848877 122.33604431 C-40.40148252 120.30011764 -40.41835364 118.26419319 -40.43554688 116.22827148 C-40.43973129 115.29058426 -40.44391571 114.35289703 -40.44822693 113.38679504 C-40.07510623 109.30694354 -40.07510623 109.30694354 -41.625 105.875 C-43.43051318 105.74134879 -45.24082937 105.67150517 -47.05078125 105.62890625 C-48.15744141 105.59603516 -49.26410156 105.56316406 -50.40429688 105.52929688 C-52.74795612 105.46840578 -55.09171082 105.41107753 -57.43554688 105.35742188 C-58.54607422 105.32326172 -59.65660156 105.28910156 -60.80078125 105.25390625 C-61.82083252 105.2288501 -62.84088379 105.20379395 -63.8918457 105.17797852 C-66.67103484 104.8698969 -68.30433363 104.40870533 -70.625 102.875 C-73.0052889 99.30456665 -73.2000004 98.08662571 -72.625 93.875 C-71.20393475 91.24778841 -69.37673689 89.00323115 -67.5 86.6875 C-66.38944228 85.26394272 -65.2801172 83.83942316 -64.171875 82.4140625 C-63.58857422 81.67188477 -63.00527344 80.92970703 -62.40429688 80.16503906 C-59.44309201 76.35382863 -56.60070268 72.45664169 -53.75 68.5625 C-52.56539901 66.95160605 -51.38050087 65.34093059 -50.1953125 63.73046875 C-49.60524414 62.92786621 -49.01517578 62.12526367 -48.40722656 61.29833984 C-46.06295305 58.11077013 -43.7157327 54.92537775 -41.36816406 51.74023438 C-40.21099719 50.17011776 -39.05409383 48.59980689 -37.89746094 47.02929688 C-34.86036929 42.90569638 -31.81955703 38.78490584 -28.7734375 34.66796875 C-27.82597656 33.38599609 -27.82597656 33.38599609 -26.859375 32.078125 C-25.65478049 30.44837948 -24.44911857 28.81942216 -23.2421875 27.19140625 C-20.85120865 23.95456224 -18.50750524 20.73087002 -16.3515625 17.33203125 C-15.78179687 16.52121094 -15.21203125 15.71039063 -14.625 14.875 C-13.965 14.875 -13.305 14.875 -12.625 14.875 C-12.36074219 14.14925781 -12.09648437 13.42351562 -11.82421875 12.67578125 C-9.38135425 6.97045928 -6.24073007 1.50638312 0 0 Z " fill="#0E8CD0" transform="translate(249.625,142.125)"/>
<path d="M0 0 C0.33 0.66 0.66 1.32 1 2 C0.54625 2.7425 0.0925 3.485 -0.375 4.25 C-2.14037509 7.23755784 -2.60249874 9.58148917 -3 13 C-2.01 13.33 -1.02 13.66 0 14 C0 14.66 0 15.32 0 16 C1.19544434 15.9685791 1.19544434 15.9685791 2.41503906 15.93652344 C6.02656434 15.85336678 9.63788824 15.80133966 13.25 15.75 C15.13138672 15.69972656 15.13138672 15.69972656 17.05078125 15.6484375 C18.25605469 15.63554687 19.46132812 15.62265625 20.703125 15.609375 C21.81333008 15.58842773 22.92353516 15.56748047 24.06738281 15.54589844 C27.80382211 16.12446796 28.73148805 17.00236573 31 20 C31.36951681 22.62601471 31.49810559 24.82417427 31.43823242 27.44311523 C31.43721024 28.18669281 31.43618805 28.93027039 31.43513489 29.69638062 C31.42725962 32.15095113 31.39127387 34.60428535 31.35546875 37.05859375 C31.34546338 38.76724766 31.33737826 40.47591379 31.33113098 42.18458557 C31.3101988 46.68247689 31.26613744 51.17983665 31.21636963 55.67749023 C31.1411091 62.87258744 31.10300537 70.06800175 31.06087685 77.26335335 C31.04320921 79.77441792 31.01706439 82.28527833 30.98930359 84.79624939 C30.97607956 86.33999543 30.96295671 87.88374234 30.94995117 89.42749023 C30.93513199 90.4711097 30.93513199 90.4711097 30.92001343 91.53581238 C30.89532629 95.17212853 31.22897584 98.45370129 32 102 C31.68886004 103.33868623 31.35525308 104.67233885 31 106 C31.09260054 108.46361135 31.09260054 108.46361135 31.4375 111 C31.80740135 114.07158589 32 116.88737965 32 120 C32.66 120 33.32 120 34 120 C33.67 121.65 33.34 123.3 33 125 C37.455 124.505 37.455 124.505 42 124 C42 124.66 42 125.32 42 126 C42.8029248 125.96970703 43.60584961 125.93941406 44.43310547 125.90820312 C48.24690453 125.7672124 52.06088602 125.63213236 55.875 125.5 C56.56807251 125.47565887 57.26114502 125.45131775 57.97521973 125.42623901 C69.00951341 125.0456638 80.02047081 124.91663833 91.06201172 125.125 C92.0676416 125.13660156 93.07327148 125.14820313 94.109375 125.16015625 C94.98561523 125.17699463 95.86185547 125.19383301 96.76464844 125.21118164 C99.28689355 125.15105863 99.28689355 125.15105863 102 123 C102.99 123 103.98 123 105 123 C105.00808685 121.75163361 105.01617371 120.50326721 105.02450562 119.21707153 C105.10186302 107.47411802 105.18957563 95.73128186 105.28752708 83.98848152 C105.33755394 77.95084065 105.38388328 71.91321783 105.421875 65.87548828 C105.45864723 60.05288547 105.50498488 54.23043137 105.55806351 48.40795517 C105.57665045 46.18234735 105.59174236 43.9567076 105.60334396 41.7310524 C105.62013302 38.62279151 105.64914989 35.51487441 105.68115234 32.40673828 C105.68331253 31.47885498 105.68547272 30.55097168 105.68769836 29.5949707 C105.69886185 28.75080597 105.71002533 27.90664124 105.7215271 27.03689575 C105.72982324 25.93350955 105.72982324 25.93350955 105.73828697 24.80783272 C106 23 106 23 108 21 C108.04630379 34.09966662 108.08185928 47.19931383 108.10362434 60.29904556 C108.11406952 66.38152198 108.12824219 72.46394248 108.15087891 78.54638672 C108.17258099 84.41429953 108.1845631 90.2821585 108.18975449 96.15010834 C108.19345497 98.39084471 108.20068091 100.63157807 108.21146011 102.87229156 C108.22593989 106.00639761 108.2279794 109.14028004 108.22705078 112.27441406 C108.23424133 113.20445755 108.24143188 114.13450104 108.24884033 115.09272766 C108.246091 115.94805588 108.24334167 116.80338409 108.24050903 117.68463135 C108.24235262 118.42575291 108.24419621 119.16687447 108.24609566 119.93045425 C107.95970551 122.33885726 107.24987562 123.93137793 106 126 C102.65374742 128.40658932 99.41195479 128.27019303 95.38305664 128.30639648 C94.7272612 128.31472 94.07146576 128.32304352 93.39579773 128.33161926 C91.23385639 128.35566084 89.07221697 128.36448322 86.91015625 128.37109375 C85.40327364 128.38006334 83.89639192 128.38918525 82.38951111 128.39845276 C79.23304075 128.41492854 76.0766763 128.42264049 72.92016602 128.42553711 C68.88025245 128.43092488 64.84133692 128.46862559 60.80170536 128.51428127 C57.69010296 128.54405546 54.57874106 128.5512607 51.46700859 128.55226326 C49.97786313 128.55646359 48.48871684 128.56889064 46.99971199 128.58978081 C44.91451091 128.61671126 42.83162543 128.61186882 40.74633789 128.59936523 C39.56149307 128.60443588 38.37664825 128.60950653 37.15589905 128.61473083 C33.07950359 127.82069847 31.6081195 126.15229952 29 123 C27.86282511 120.72565023 27.86606786 119.45848928 27.84851074 116.93186951 C27.84016708 116.08073578 27.83182343 115.22960205 27.82322693 114.35267639 C27.8169503 112.9491819 27.8169503 112.9491819 27.81054688 111.51733398 C27.80225357 110.5335376 27.79396027 109.54974121 27.78541565 108.53613281 C27.76799132 106.39554405 27.75283107 104.25493597 27.73963928 102.11431694 C27.71866466 98.73233348 27.69163886 95.35044747 27.66296387 91.96852112 C27.59302227 83.56967988 27.53365257 75.17076963 27.47393799 66.77185059 C27.42310295 59.67698616 27.36831018 52.58217431 27.30812073 45.48738289 C27.28144311 42.14528568 27.26069197 38.80318385 27.2401123 35.46104431 C27.22351748 33.42511764 27.20664636 31.38919319 27.18945312 29.35327148 C27.18526871 28.41558426 27.18108429 27.47789703 27.17677307 26.51179504 C27.54989377 22.43194354 27.54989377 22.43194354 26 19 C24.19448682 18.86634879 22.38417063 18.79650517 20.57421875 18.75390625 C19.46755859 18.72103516 18.36089844 18.68816406 17.22070312 18.65429688 C14.87704388 18.59340578 12.53328918 18.53607753 10.18945312 18.48242188 C9.07892578 18.44826172 7.96839844 18.41410156 6.82421875 18.37890625 C5.29414185 18.34132202 5.29414185 18.34132202 3.7331543 18.30297852 C0.95396516 17.9948969 -0.67933363 17.53370533 -3 16 C-5.3765323 12.43520155 -5.565955 11.20423715 -5 7 C-3.54850926 4.4813854 -1.85247773 2.23620526 0 0 Z " fill="#1D7CAF" transform="translate(182,229)"/>
<path d="M0 0 C0.33 0 0.66 0 1 0 C1.144375 1.093125 1.28875 2.18625 1.4375 3.3125 C1.88288104 6.93122987 1.88288104 6.93122987 3 10 C6.15386073 11.24642242 9.43125833 11.16683228 12.7890625 11.24609375 C14.44808594 11.29540039 14.44808594 11.29540039 16.140625 11.34570312 C18.47124953 11.40710411 20.80198656 11.46436885 23.1328125 11.51757812 C24.23625 11.55173828 25.3396875 11.58589844 26.4765625 11.62109375 C27.48799316 11.6461499 28.49942383 11.67120605 29.54150391 11.69702148 C32 12 32 12 34 14 C34.25333309 15.80948353 34.25333309 15.80948353 34.25828552 18.04121399 C34.26852753 19.30924362 34.26852753 19.30924362 34.27897644 20.60289001 C34.27514702 21.99695824 34.27514702 21.99695824 34.27124023 23.41918945 C34.27646698 24.39656067 34.28169373 25.37393188 34.28707886 26.38092041 C34.29733915 28.50840455 34.30310278 30.63591394 34.30496025 32.76342201 C34.30861164 36.12977027 34.32530513 39.49582065 34.34571838 42.86210632 C34.4012453 52.43495142 34.43181471 62.00784114 34.45629883 71.58081055 C34.47216774 77.43168267 34.50238317 83.28234474 34.54106331 89.13310814 C34.5527227 91.36461343 34.55864374 93.59615629 34.55874443 95.82769203 C34.55893633 98.9495601 34.57719297 102.07084878 34.59936523 105.19262695 C34.59478806 106.11593307 34.59021088 107.0392392 34.585495 107.99052429 C34.63976181 112.79302435 34.82172685 116.12729895 38 120 C40.84476785 121.42238392 43.28872888 121.16424558 46.46923828 121.20532227 C47.13277313 121.21522186 47.79630798 121.22512146 48.47994995 121.23532104 C50.67670097 121.26694916 52.87347363 121.29169854 55.0703125 121.31640625 C56.59203661 121.33697466 58.113755 121.3579711 59.63546753 121.37937927 C63.6434465 121.43461171 67.65147713 121.48401578 71.6595459 121.53222656 C75.74833787 121.58243305 79.83705468 121.63812356 83.92578125 121.69335938 C91.95045732 121.80095528 99.9751962 121.90239704 108 122 C108 122.66 108 123.32 108 124 C107.10464035 123.99777939 106.2092807 123.99555878 105.28678894 123.99327087 C96.85537396 123.97324694 88.42396696 123.9580151 79.99253368 123.94818783 C75.65769119 123.94296573 71.32286831 123.93588024 66.98803711 123.92456055 C62.80593485 123.91370783 58.62385148 123.90771808 54.44173622 123.90512276 C52.84491999 123.90327282 51.24810482 123.89966045 49.65129662 123.89426994 C47.41749194 123.8870279 45.18376567 123.8860104 42.94995117 123.88647461 C41.67754074 123.884254 40.40513031 123.88203339 39.09416199 123.87974548 C35.96295064 123.85726841 35.96295064 123.85726841 33 125 C32.12716668 121.50866674 32.12687866 119.43253964 33 116 C33.07640548 114.57818368 33.10262183 113.15312715 33.08901978 111.72932434 C33.08062828 110.46112099 33.08062828 110.46112099 33.07206726 109.16729736 C33.06069229 108.24817566 33.04931732 107.32905396 33.03759766 106.38208008 C33.02959641 105.40774521 33.02159515 104.43341034 33.01335144 103.42955017 C32.98547287 100.20947184 32.94999981 96.98952899 32.9140625 93.76953125 C32.89229679 91.53562212 32.8708471 89.30170988 32.84970093 87.0677948 C32.80421087 82.38800989 32.75498333 77.70828301 32.703125 73.02856445 C32.63678159 67.01577276 32.57956209 61.00293514 32.52509499 54.99002552 C32.48235978 50.37908506 32.43490941 45.76820255 32.38599777 41.15732384 C32.36302838 38.93925103 32.3415278 36.72116253 32.32149124 34.50306129 C32.29284505 31.41187881 32.25789208 28.32083222 32.22119141 25.22973633 C32.21020164 23.84194473 32.21020164 23.84194473 32.19898987 22.42611694 C32.54893292 18.39111986 32.54893292 18.39111986 31 15 C27.00588438 14.24910626 23.17946338 13.94264753 19.1171875 13.89453125 C18.25996094 13.87970703 17.40273437 13.86488281 16.51953125 13.84960938 C14.74886458 13.8247625 12.97781483 13.81972477 11.20703125 13.83398438 C4.91345067 13.6773568 4.91345067 13.6773568 2.28369141 11.72729492 C-0.05403267 9.06099673 -0.97497218 7.2210791 -1.375 3.6875 C-1 1 -1 1 0 0 Z " fill="#B9DDEC" transform="translate(176,235)"/>
<path d="M0 0 C2 2 2 2 4 5 C5.485 5.495 5.485 5.495 7 6 C8.1875 9.5625 8.1875 9.5625 9 13 C9.66 13 10.32 13 11 13 C11.495 14.485 11.495 14.485 12 16 C11.01 16.495 11.01 16.495 10 17 C9.44570313 16.21753906 8.89140625 15.43507812 8.3203125 14.62890625 C7.59585938 13.61699219 6.87140625 12.60507813 6.125 11.5625 C5.40570313 10.55316406 4.68640625 9.54382813 3.9453125 8.50390625 C1.55352796 5.42532414 0.65066954 5.15616069 -3.125 4.25 C-7.94794827 5.18347386 -8.55277553 6.48682743 -11.375 10.375 C-13.04871562 12.8758801 -14.65453214 15.30906429 -16 18 C-16.66 18 -17.32 18 -18 18 C-18.20625 18.66 -18.4125 19.32 -18.625 20 C-20.51152871 24.11606263 -23.20567979 27.4587703 -26 31 C-26.33 30.01 -26.66 29.02 -27 28 C-26.01 26.515 -26.01 26.515 -25 25 C-25.66 23.68 -26.32 22.36 -27 21 C-26.01 21 -25.02 21 -24 21 C-23.79503906 20.38511719 -23.59007812 19.77023438 -23.37890625 19.13671875 C-19.875 8.625 -19.875 8.625 -14 5 C-14 5.66 -14 6.32 -14 7 C-13.01 6.67 -12.02 6.34 -11 6 C-10.67 5.34 -10.34 4.68 -10 4 C-9.34 4 -8.68 4 -8 4 C-7.87625 3.360625 -7.7525 2.72125 -7.625 2.0625 C-7.315625 1.0415625 -7.315625 1.0415625 -7 0 C-4.29393021 -1.35303489 -2.8671629 -0.7884698 0 0 Z " fill="#DEECF0" transform="translate(253,139)"/>
<path d="M0 0 C0.33 0.66 0.66 1.32 1 2 C0.54625 2.7425 0.0925 3.485 -0.375 4.25 C-2.14037509 7.23755784 -2.60249874 9.58148917 -3 13 C-2.01 13.33 -1.02 13.66 0 14 C0 14.66 0 15.32 0 16 C1.19544434 15.9685791 1.19544434 15.9685791 2.41503906 15.93652344 C6.02656434 15.85336678 9.63788824 15.80133966 13.25 15.75 C15.13138672 15.69972656 15.13138672 15.69972656 17.05078125 15.6484375 C18.25605469 15.63554687 19.46132812 15.62265625 20.703125 15.609375 C21.81333008 15.58842773 22.92353516 15.56748047 24.06738281 15.54589844 C27.62519334 16.09680816 28.76701723 17.2539063 31 20 C30.505 21.485 30.505 21.485 30 23 C29.90088577 24.35781678 29.85398344 25.7198478 29.84178162 27.08122253 C29.82709839 28.32428917 29.82709839 28.32428917 29.81211853 29.59246826 C29.80636307 30.49805481 29.8006076 31.40364136 29.79467773 32.33666992 C29.78477814 33.29295792 29.77487854 34.24924591 29.76467896 35.23451233 C29.73305614 38.39980583 29.70830336 41.56511435 29.68359375 44.73046875 C29.6630249 46.92336928 29.64202845 49.11626583 29.62062073 51.30915833 C29.56539292 57.08442979 29.51598672 62.85973708 29.46777344 68.6350708 C29.41756363 74.52692864 29.36187484 80.41873438 29.30664062 86.31054688 C29.19905036 97.87365342 29.09760727 109.43680518 29 121 C28.67 121 28.34 121 28 121 C27.98969254 119.73688492 27.97938507 118.47376984 27.96876526 117.17237854 C27.87121342 105.29671055 27.76849712 93.42109711 27.66066074 81.54551792 C27.60538234 75.4394624 27.55195462 69.33340213 27.50268555 63.22729492 C27.45511436 57.33990594 27.40277446 51.45257728 27.34705925 45.56525993 C27.32660275 43.31369456 27.30789526 41.06211262 27.29092598 38.81051826 C27.26695465 35.66862087 27.23689053 32.52683867 27.20532227 29.38500977 C27.19668907 27.97376579 27.19668907 27.97376579 27.18788147 26.53401184 C27.55502173 22.44209231 27.55502173 22.44209231 26 19 C24.19448682 18.86634879 22.38417063 18.79650517 20.57421875 18.75390625 C19.46755859 18.72103516 18.36089844 18.68816406 17.22070312 18.65429688 C14.87704388 18.59340578 12.53328918 18.53607753 10.18945312 18.48242188 C9.07892578 18.44826172 7.96839844 18.41410156 6.82421875 18.37890625 C5.29414185 18.34132202 5.29414185 18.34132202 3.7331543 18.30297852 C0.95396516 17.9948969 -0.67933363 17.53370533 -3 16 C-5.3765323 12.43520155 -5.565955 11.20423715 -5 7 C-3.54850926 4.4813854 -1.85247773 2.23620526 0 0 Z " fill="#4892B8" transform="translate(182,229)"/>
<path d="M0 0 C0.33 0 0.66 0 1 0 C1.25 2.3125 1.25 2.3125 1 5 C-0.30144802 6.04115841 -1.63838689 7.03886134 -3 8 C-3.71247732 9.6476038 -4.37400383 11.31763529 -5 13 C-8.472 18.824 -8.472 18.824 -12 20 C-12.8699523 21.95958952 -13.38954919 23.92757106 -13.9609375 25.9921875 C-15.3823951 28.73891385 -17.36066361 29.44953781 -20 31 C-21.86351121 33.18500674 -21.86351121 33.18500674 -23.4375 35.6875 C-25.6224825 38.95783328 -27.83772199 42.14336902 -30.25 45.25 C-32.01739005 47.56765924 -33.26451053 49.53960149 -34.5625 52.1875 C-36.25296525 55.49493201 -38.1773018 57.60070653 -41 60 C-41.99 60 -42.98 60 -44 60 C-43.26910156 59.03126953 -43.26910156 59.03126953 -42.5234375 58.04296875 C-32.92845477 45.29036443 -23.46209292 32.44261354 -14.125 19.5 C-13.58875 18.75685547 -13.0525 18.01371094 -12.5 17.24804688 C-10.14290446 13.97918925 -7.78984341 10.70756854 -5.4453125 7.4296875 C-4.72085938 6.42164063 -3.99640625 5.41359375 -3.25 4.375 C-2.63640625 3.51648438 -2.0228125 2.65796875 -1.390625 1.7734375 C-0.93171875 1.18820313 -0.4728125 0.60296875 0 0 Z " fill="#2D83AC" transform="translate(227,168)"/>
<path d="M0 0 C1.03688965 0.01047363 2.0737793 0.02094727 3.14208984 0.03173828 C4.26357422 0.03818359 5.38505859 0.04462891 6.54052734 0.05126953 C7.71615234 0.06802734 8.89177734 0.08478516 10.10302734 0.10205078 C11.28638672 0.11107422 12.46974609 0.12009766 13.68896484 0.12939453 C16.61885257 0.15302266 19.54834075 0.18596564 22.47802734 0.22705078 C22.47802734 0.55705078 22.47802734 0.88705078 22.47802734 1.22705078 C21.86805908 1.25210693 21.25809082 1.27716309 20.62963867 1.30297852 C17.84974837 1.41945658 15.07015395 1.54194711 12.29052734 1.66455078 C11.33082031 1.70386719 10.37111328 1.74318359 9.38232422 1.78369141 C8.45097656 1.82558594 7.51962891 1.86748047 6.56005859 1.91064453 C5.27965698 1.9656311 5.27965698 1.9656311 3.97338867 2.02172852 C1.04024841 2.21490209 1.04024841 2.21490209 -3.52197266 3.22705078 C-3.19197266 37.21705078 -2.86197266 71.20705078 -2.52197266 106.22705078 C-4.50197266 106.72205078 -4.50197266 106.72205078 -6.52197266 107.22705078 C-6.19197266 106.23705078 -5.86197266 105.24705078 -5.52197266 104.22705078 C-5.42646744 102.82292768 -5.38447693 101.41477966 -5.37721252 100.00743103 C-5.37031403 99.14795364 -5.36341553 98.28847626 -5.35630798 97.4029541 C-5.35369461 96.46310669 -5.35108124 95.52325928 -5.34838867 94.55493164 C-5.34170166 93.56284195 -5.33501465 92.57075226 -5.328125 91.54859924 C-5.3140684 89.39274769 -5.30217629 87.2368812 -5.2921772 85.081007 C-5.27579026 81.67346112 -5.25255528 78.2660266 -5.22727966 74.85853577 C-5.15642562 65.16982547 -5.09625882 55.48107064 -5.04516602 45.79223633 C-5.0134502 39.86893112 -4.97219821 33.94575526 -4.92497063 28.0225544 C-4.90891098 25.76065957 -4.89660786 23.49873494 -4.88806343 21.23679924 C-4.87596709 18.0809902 -4.85184312 14.92548792 -4.82495117 11.76977539 C-4.82436203 10.82790375 -4.82377289 9.8860321 -4.82316589 8.9156189 C-4.81344757 8.05896133 -4.80372925 7.20230377 -4.79371643 6.31968689 C-4.78948449 5.57324386 -4.78525255 4.82680082 -4.78089237 4.0577383 C-4.33624579 0.91387207 -3.02253661 0.27211607 0 0 Z " fill="#C8E4F4" transform="translate(294.52197265625,246.77294921875)"/>
<path d="M0 0 C1.5 1.375 1.5 1.375 3 3 C3 3.66 3 4.32 3 5 C3.66 5 4.32 5 5 5 C6.36116961 6.78233868 7.63623787 8.63051283 8.875 10.5 C12.45887127 15.82490597 16.19205014 21.00475558 20.0625 26.125 C20.82361084 27.13892822 20.82361084 27.13892822 21.60009766 28.17333984 C23.88880811 31.21978406 26.19087821 34.25218258 28.54296875 37.25 C29.27128906 38.19875 29.99960937 39.1475 30.75 40.125 C31.70132812 41.33542969 31.70132812 41.33542969 32.671875 42.5703125 C34.30248851 45.55337604 34.2524066 47.65075856 34 51 C33.01 51.495 33.01 51.495 32 52 C31.87882812 51.39671875 31.75765625 50.7934375 31.6328125 50.171875 C31.46523438 49.37265625 31.29765625 48.5734375 31.125 47.75 C30.96257812 46.96109375 30.80015625 46.1721875 30.6328125 45.359375 C30.00849925 43.03168856 29.15161458 41.10968048 28 39 C27.34 39 26.68 39 26 39 C26 38.34 26 37.68 26 37 C25.01 37 24.02 37 23 37 C22.67 35.02 22.34 33.04 22 31 C21.34 31 20.68 31 20 31 C18.66796875 29.171875 18.66796875 29.171875 17.1875 26.75 C15.2975114 23.78067967 13.99939696 21.99953097 11.1875 19.8125 C9 18 9 18 8.1875 14.75 C8.125625 13.8425 8.06375 12.935 8 12 C7.01 12 6.02 12 5 12 C5 10.68 5 9.36 5 8 C4.0409375 7.5359375 4.0409375 7.5359375 3.0625 7.0625 C1 6 1 6 0 5 C-0.04063832 3.33382885 -0.042721 1.66611905 0 0 Z " fill="#2A7BA7" transform="translate(289,191)"/>
<path d="M0 0 C4.58364513 4.26425743 8.14903502 9.06325455 11.8125 14.125 C12.42689941 14.96796631 13.04129883 15.81093262 13.67431641 16.67944336 C14.89369595 18.35299761 16.11151319 20.02769149 17.32763672 21.70361328 C18.77067863 23.68510996 20.22565145 25.65638266 21.69140625 27.62109375 C22.41199219 28.59175781 23.13257813 29.56242187 23.875 30.5625 C24.49117188 31.38878906 25.10734375 32.21507812 25.7421875 33.06640625 C27 35 27 35 27 37 C25.515 36.505 25.515 36.505 24 36 C24 35.34 24 34.68 24 34 C20.535 33.505 20.535 33.505 17 33 C17.22429687 32.27167969 17.44859375 31.54335937 17.6796875 30.79296875 C18.08863799 27.22711996 17.22230935 26.15884841 15.125 23.3125 C14.29355469 22.16201172 14.29355469 22.16201172 13.4453125 20.98828125 C12.96835937 20.33214844 12.49140625 19.67601562 12 19 C11.67 18.34 11.34 17.68 11 17 C10.01 16.67 9.02 16.34 8 16 C6.97265625 14.29296875 6.97265625 14.29296875 6.0625 12.1875 C4.79423933 9.44041801 3.92994456 7.92994456 1.75 5.75 C1.1725 5.1725 0.595 4.595 0 4 C0 2.68 0 1.36 0 0 Z " fill="#2486BB" transform="translate(257,148)"/>
<path d="M0 0 C3.28122649 0.74291921 4.99353425 1.33827562 7.3125 3.75 C7.3125 4.41 7.3125 5.07 7.3125 5.75 C5.9925 5.42 4.6725 5.09 3.3125 4.75 C3.3125 4.09 3.3125 3.43 3.3125 2.75 C-1.67691602 3.67807087 -1.67691602 3.67807087 -5.375 6.875 C-6.0246875 8.298125 -6.0246875 8.298125 -6.6875 9.75 C-9.86146813 16.6572258 -13.3650209 21.30084804 -19.6875 25.75 C-20.3475 25.42 -21.0075 25.09 -21.6875 24.75 C-20.57071917 23.0778148 -19.44383648 21.41237197 -18.3125 19.75 C-17.68601563 18.821875 -17.05953125 17.89375 -16.4140625 16.9375 C-15.84429687 16.215625 -15.27453125 15.49375 -14.6875 14.75 C-14.0275 14.75 -13.3675 14.75 -12.6875 14.75 C-12.29111328 13.66138672 -12.29111328 13.66138672 -11.88671875 12.55078125 C-9.43973194 6.8358316 -6.32657574 1.28676117 0 0 Z " fill="#2184B9" transform="translate(249.6875,142.25)"/>
<path d="M0 0 C0.33 0 0.66 0 1 0 C1.144375 1.093125 1.28875 2.18625 1.4375 3.3125 C1.88288104 6.93122987 1.88288104 6.93122987 3 10 C6.15386073 11.24642242 9.43125833 11.16683228 12.7890625 11.24609375 C14.44808594 11.29540039 14.44808594 11.29540039 16.140625 11.34570312 C18.47124953 11.40710411 20.80198656 11.46436885 23.1328125 11.51757812 C24.23625 11.55173828 25.3396875 11.58589844 26.4765625 11.62109375 C27.48799316 11.6461499 28.49942383 11.67120605 29.54150391 11.69702148 C32 12 32 12 34 14 C34.17546482 17.01308951 34.23127445 19.93310454 34.1953125 22.9453125 C34.1924826 23.8303244 34.18965271 24.7153363 34.18673706 25.62716675 C34.1755224 28.45991412 34.1504157 31.29234784 34.125 34.125 C34.11497185 36.04296419 34.10584572 37.96093333 34.09765625 39.87890625 C34.07557889 44.58605876 34.04104045 49.29297616 34 54 C33.67 54 33.34 54 33 54 C32.97494385 52.854104 32.9498877 51.70820801 32.92407227 50.52758789 C32.83016894 46.29146402 32.72990725 42.05551072 32.62768555 37.81958008 C32.5842718 35.98335753 32.54260161 34.14709292 32.50268555 32.31079102 C32.44513831 29.67711689 32.38140002 27.04365579 32.31640625 24.41015625 C32.29969376 23.58411392 32.28298126 22.75807159 32.26576233 21.90699768 C32.52192567 18.14523247 32.52192567 18.14523247 31 15 C27.00588438 14.24910626 23.17946338 13.94264753 19.1171875 13.89453125 C18.25996094 13.87970703 17.40273437 13.86488281 16.51953125 13.84960938 C14.74886458 13.8247625 12.97781483 13.81972477 11.20703125 13.83398438 C4.91345067 13.6773568 4.91345067 13.6773568 2.28369141 11.72729492 C-0.05403267 9.06099673 -0.97497218 7.2210791 -1.375 3.6875 C-1 1 -1 1 0 0 Z " fill="#C9E7F6" transform="translate(176,235)"/>
<path d="M0 0 C0.33 0.66 0.66 1.32 1 2 C0.54625 2.7425 0.0925 3.485 -0.375 4.25 C-2.14037509 7.23755784 -2.60249874 9.58148917 -3 13 C-2.01 13.33 -1.02 13.66 0 14 C0 14.66 0 15.32 0 16 C1.19544434 15.9685791 1.19544434 15.9685791 2.41503906 15.93652344 C6.02656434 15.85336678 9.63788824 15.80133966 13.25 15.75 C15.13138672 15.69972656 15.13138672 15.69972656 17.05078125 15.6484375 C18.25605469 15.63554687 19.46132812 15.62265625 20.703125 15.609375 C21.81333008 15.58842773 22.92353516 15.56748047 24.06738281 15.54589844 C27.62519334 16.09680816 28.76701723 17.2539063 31 20 C30.505 21.485 30.505 21.485 30 23 C29.45794922 22.35111816 28.91589844 21.70223633 28.35742188 21.03369141 C25.44978187 18.52533999 24.07158403 18.49205583 20.28125 18.4609375 C19.18425781 18.43773437 18.08726562 18.41453125 16.95703125 18.390625 C15.81621094 18.38546875 14.67539063 18.3803125 13.5 18.375 C11.23947414 18.34945733 8.97902071 18.31593378 6.71875 18.2734375 C5.71779297 18.26747559 4.71683594 18.26151367 3.68554688 18.25537109 C0.90514286 17.99097995 -0.68306487 17.53416948 -3 16 C-5.3765323 12.43520155 -5.565955 11.20423715 -5 7 C-3.54850926 4.4813854 -1.85247773 2.23620526 0 0 Z " fill="#3588B3" transform="translate(182,229)"/>
<path d="M0 0 C2.2477975 2.05233685 3.0022242 3.00667261 4 6 C4.99 6 5.98 6 7 6 C7.33 6.66 7.66 7.32 8 8 C9.81296615 8.62092718 9.81296615 8.62092718 12 9 C12.9075 9.185625 13.815 9.37125 14.75 9.5625 C15.4925 9.706875 16.235 9.85125 17 10 C17 10.33 17 10.66 17 11 C14.56183415 11.0809723 12.12635616 11.14046972 9.6875 11.1875 C8.65206055 11.22520508 8.65206055 11.22520508 7.59570312 11.26367188 C2.50224128 11.33749016 2.50224128 11.33749016 0.03515625 9.6796875 C-1.54687461 7.11261856 -1.25031576 4.94121024 -1 2 C-0.67 1.34 -0.34 0.68 0 0 Z " fill="#0F87CA" transform="translate(180,234)"/>
<path d="M0 0 C0.99 0.33 1.98 0.66 3 1 C1.64240303 4.89962804 -0.11227839 7.64825645 -2.75 10.8125 C-5.91212477 14.64729495 -8.90304828 18.54453192 -11.7734375 22.6015625 C-12.17820313 23.06304687 -12.58296875 23.52453125 -13 24 C-13.66 24 -14.32 24 -15 24 C-13.99127482 20.97382445 -12.74839516 18.65756064 -11 16 C-10.34 15.67 -9.68 15.34 -9 15 C-8.9175 14.236875 -8.835 13.47375 -8.75 12.6875 C-7.67675368 8.84170067 -5.29038403 8.08167153 -2 6 C-0.55276143 3.76335858 0 2.64566409 0 0 Z " fill="#CEE7F2" transform="translate(193,209)"/>
<path d="M0 0 C1.5 1.375 1.5 1.375 3 3 C3 3.66 3 4.32 3 5 C3.66 5 4.32 5 5 5 C6.63820852 7.07289562 8.14252648 9.13280065 9.625 11.3125 C10.25535156 12.20485352 10.25535156 12.20485352 10.8984375 13.11523438 C14 17.62156301 14 17.62156301 14 21 C11.5625 19.875 11.5625 19.875 9 18 C8.1875 14.8125 8.1875 14.8125 8 12 C7.01 12 6.02 12 5 12 C5 10.68 5 9.36 5 8 C4.0409375 7.5359375 4.0409375 7.5359375 3.0625 7.0625 C1 6 1 6 0 5 C-0.04063832 3.33382885 -0.042721 1.66611905 0 0 Z " fill="#2680B1" transform="translate(289,191)"/>
<path d="M0 0 C4.32448087 4.06773989 7.79990263 8.53656263 11.3125 13.3125 C12.13717773 14.42334961 12.13717773 14.42334961 12.97851562 15.55664062 C14.32272179 17.36839676 15.66308744 19.182859 17 21 C16.34 21.33 15.68 21.66 15 22 C13.29159719 20.36587557 12.06546953 19.13093906 11 17 C10.01 16.67 9.02 16.34 8 16 C6.97265625 14.29296875 6.97265625 14.29296875 6.0625 12.1875 C4.79423933 9.44041801 3.92994456 7.92994456 1.75 5.75 C1.1725 5.1725 0.595 4.595 0 4 C0 2.68 0 1.36 0 0 Z " fill="#2A7FAB" transform="translate(257,148)"/>
<path d="M0 0 C1.65 0 3.3 0 5 0 C5.28875 0.94875 5.5775 1.8975 5.875 2.875 C6.76825109 6.05211578 6.76825109 6.05211578 9 8 C9 8.99 9 9.98 9 11 C9.99 11.33 10.98 11.66 12 12 C14.67927341 16.01891012 14.15601248 18.24161923 14 23 C13.67 23 13.34 23 13 23 C12.835 22.071875 12.67 21.14375 12.5 20.1875 C11.13413419 15.29231668 8.02367832 11.62902331 4.97265625 7.6484375 C3.13150881 5.17656034 1.53680224 2.66892928 0 0 Z " fill="#C6E2F1" transform="translate(310,219)"/>
<path d="M0 0 C0.66 0 1.32 0 2 0 C2 0.99 2 1.98 2 3 C-1.29734646 4.09911549 -3.72958745 4.1139456 -7.19921875 4.09765625 C-8.40771484 4.09443359 -9.61621094 4.09121094 -10.86132812 4.08789062 C-12.7552832 4.07532227 -12.7552832 4.07532227 -14.6875 4.0625 C-16.59885742 4.05573242 -16.59885742 4.05573242 -18.54882812 4.04882812 C-21.69926564 4.03702873 -24.84960949 4.02056597 -28 4 C-27.67 3.01 -27.34 2.02 -27 1 C-26.21761963 1.00523682 -25.43523926 1.01047363 -24.62915039 1.01586914 C-21.10694167 1.03657106 -17.5847457 1.04963838 -14.0625 1.0625 C-12.21495117 1.07506836 -12.21495117 1.07506836 -10.33007812 1.08789062 C-9.16025391 1.09111328 -7.99042969 1.09433594 -6.78515625 1.09765625 C-5.70113525 1.10289307 -4.61711426 1.10812988 -3.50024414 1.11352539 C-1.05950052 1.28426897 -1.05950052 1.28426897 0 0 Z " fill="#1785C4" transform="translate(319,242)"/>
<path d="M0 0 C0.66 0.33 1.32 0.66 2 1 C0.90751403 2.50852857 -0.19938499 4.00662831 -1.3125 5.5 C-1.92738281 6.3353125 -2.54226562 7.170625 -3.17578125 8.03125 C-3.77777344 8.6809375 -4.37976563 9.330625 -5 10 C-5.99 10 -6.98 10 -8 10 C-7.34 8.02 -6.68 6.04 -6 4 C-5.34 4 -4.68 4 -4 4 C-3.67 3.01 -3.34 2.02 -3 1 C-2.01 0.67 -1.02 0.34 0 0 Z " fill="#D6EDF3" transform="translate(224,170)"/>
<path d="M0 0 C3.77130907 0.25568197 5.11206772 0.57155043 7.6875 3.25 C7.6875 3.91 7.6875 4.57 7.6875 5.25 C6.3675 4.92 5.0475 4.59 3.6875 4.25 C3.6875 3.59 3.6875 2.93 3.6875 2.25 C-0.17898272 3.29097612 -3.80711443 4.28698408 -7.3125 6.25 C-3.79553797 0.2864557 -3.79553797 0.2864557 0 0 Z " fill="#327D9F" transform="translate(249.3125,142.75)"/>
<path d="M0 0 C0.66 0 1.32 0 2 0 C3.38232443 1.62626404 4.71937515 3.2925002 6 5 C5.67 5.66 5.34 6.32 5 7 C1.9375 7.625 1.9375 7.625 -1 8 C-1.625 5.6875 -1.625 5.6875 -2 3 C-1.34 2.01 -0.68 1.02 0 0 Z " fill="#CDDDE0" transform="translate(210,352)"/>
<path d="M0 0 C4.23269578 1.51167706 5.66268097 4.30552799 8 8 C8.8353125 8.7734375 8.8353125 8.7734375 9.6875 9.5625 C11.49242013 11.53931728 11.64819075 13.39661158 12 16 C7.1693267 11.60847882 3.52339133 6.48308737 0 1 C0 0.67 0 0.34 0 0 Z " fill="#D0E9F6" transform="translate(264,156)"/>
<path d="M0 0 C0 3 0 3 -2.0625 5.3125 C-5.31276423 8.286146 -8.62482514 11.16952195 -12 14 C-12 11 -12 11 -9.375 8.30078125 C-8.25745974 7.29632542 -7.13208967 6.30052871 -6 5.3125 C-5.42765625 4.80138672 -4.8553125 4.29027344 -4.265625 3.76367188 C-2.85032787 2.5016986 -1.42599731 1.24986967 0 0 Z " fill="#F4F4F4" transform="translate(129,109)"/>
<path d="M0 0 C0.99 0 1.98 0 3 0 C1.60865582 4.42700422 -0.47884142 6.99413292 -4 10 C-4.99 10 -5.98 10 -7 10 C-5.90833564 8.3251177 -4.80126363 6.66026877 -3.6875 5 C-3.07261719 4.071875 -2.45773438 3.14375 -1.82421875 2.1875 C-0.92123047 1.1046875 -0.92123047 1.1046875 0 0 Z " fill="#1F7CAA" transform="translate(190,218)"/>
<path d="M0 0 C0 3.52032428 -0.70351351 4.4385343 -3 7 C-3.66 7 -4.32 7 -5 7 C-5.33 8.32 -5.66 9.64 -6 11 C-7.32 11.33 -8.64 11.66 -10 12 C-9.67 11.01 -9.34 10.02 -9 9 C-8.34 9 -7.68 9 -7 9 C-6.71125 8.236875 -6.4225 7.47375 -6.125 6.6875 C-5 4 -5 4 -3 1 C-2.01 0.67 -1.02 0.34 0 0 Z " fill="#257FAC" transform="translate(244,148)"/>
<path d="M0 0 C2.7972908 2.06756277 3.02692273 3.14440371 3.6875 6.6875 C3.790625 7.780625 3.89375 8.87375 4 10 C1.525 9.01 1.525 9.01 -1 8 C-1.125 2.25 -1.125 2.25 0 0 Z " fill="#0687C1" transform="translate(180,234)"/>
<path d="M0 0 C3 0 3 0 5.6875 2.1875 C8 5 8 5 8.3125 7.8125 C8.1578125 8.8953125 8.1578125 8.8953125 8 10 C4.71211176 6.88983545 2.16264012 3.98381075 0 0 Z " fill="#D1E9F5" transform="translate(300,205)"/>
<path d="M0 0 C5.28 0 10.56 0 16 0 C16.33 1.32 16.66 2.64 17 4 C16.443125 3.86722656 15.88625 3.73445312 15.3125 3.59765625 C10.2141299 2.41779695 5.20212559 1.56750461 0 1 C0 0.67 0 0.34 0 0 Z " fill="#D4EFF8" transform="translate(192,247)"/>
<path d="M0 0 C0.66 0.66 1.32 1.32 2 2 C1.01 3.485 1.01 3.485 0 5 C-0.33 5.66 -0.66 6.32 -1 7 C-2.32 6.67 -3.64 6.34 -5 6 C-5.33 7.32 -5.66 8.64 -6 10 C-6.66 9.67 -7.32 9.34 -8 9 C-6.533292 5.13322435 -4.52798328 3.99014441 -1 2 C-0.67 1.34 -0.34 0.68 0 0 Z " fill="#0B84C0" transform="translate(189,224)"/>
<path d="M0 0 C0 0.66 0 1.32 0 2 C1.32 2.33 2.64 2.66 4 3 C4 3.66 4 4.32 4 5 C3.13375 4.67 2.2675 4.34 1.375 4 C-1.95718275 3.01268659 -4.55159538 2.83579026 -8 3 C-5.53387212 -0.1151089 -3.89156016 -0.31553191 0 0 Z " fill="#1082BA" transform="translate(253,145)"/>
<path d="M0 0 C3.28788824 3.11016455 5.83735988 6.01618925 8 10 C6.125 9.75 6.125 9.75 4 9 C3.30062468 7.68352881 2.63270867 6.34977849 2 5 C1.01 4.67 0.02 4.34 -1 4 C-0.67 2.68 -0.34 1.36 0 0 Z " fill="#3383B1" transform="translate(266,160)"/>
<path d="M0 0 C1.32 0 2.64 0 4 0 C2.34832443 3.5786304 0.21713508 6.74820188 -2 10 C-2.33 9.01 -2.66 8.02 -3 7 C-2.67 6.34 -2.34 5.68 -2 5 C-1.34 5 -0.68 5 0 5 C0 3.35 0 1.7 0 0 Z " fill="#CFEBF3" transform="translate(229,160)"/>
<path d="M0 0 C0.66 0.33 1.32 0.66 2 1 C1.67 3.64 1.34 6.28 1 9 C-3 4.25 -3 4.25 -3 2 C-2.01 2 -1.02 2 0 2 C0 1.34 0 0.68 0 0 Z " fill="#D6EAF1" transform="translate(290,184)"/>
<path d="M0 0 C1.37562854 1.28965176 2.70766393 2.62689293 4 4 C4 4.66 4 5.32 4 6 C4.66 6 5.32 6 6 6 C5.67 6.66 5.34 7.32 5 8 C3.0625 7.375 3.0625 7.375 1 6 C0.25 2.875 0.25 2.875 0 0 Z " fill="#0D86C2" transform="translate(305,216)"/>
<path d="M0 0 C3.16717283 1.58358642 4.73268318 2.45263699 6.3125 5.6875 C6.539375 6.450625 6.76625 7.21375 7 8 C3.83282717 6.41641358 2.26731682 5.54736301 0.6875 2.3125 C0.460625 1.549375 0.23375 0.78625 0 0 Z " fill="#207AAA" transform="translate(271,169)"/>
<path d="M0 0 C-1.29299694 2.88437779 -2.65941363 4.87219421 -5 7 C-5.1875 4.625 -5.1875 4.625 -5 2 C-2 0 -2 0 0 0 Z " fill="#CBE5F2" transform="translate(202,202)"/>
</svg>
